<svg xmlns="http://www.w3.org/2000/svg" viewBox="0 0 599.5 212"><title>basis</title><g id="Layer_2" data-name="Layer 2"><g id="Layer_1-2" data-name="Layer 1"><polygon points="206.71 210.52 206.71 201.95 217.98 201.95 366.76 201.95 366.76 210.52 206.71 210.52" fill="#1c2c4d"/><polygon points="212.23 93.03 212.82 201.95 359.78 201.95 359.78 93.03 284.83 23.92 212.23 93.03" fill="#1c2c4d"/><polygon points="189.57 91.07 282.78 0 382.41 91.07 365.81 108.21 282.78 29.46 204.03 108.21 189.57 91.07" fill="#1c2c4d"/><polygon points="252.24 171.42 252.24 135.53 252.24 108.21 321.88 108.21 321.88 135.53 321.88 171.42 252.24 171.42" fill="#fff"/><polygon points="255.68 134.43 255.68 113.93 315.31 113.93 315.31 167.23 255.68 167.23 255.68 134.43" fill="#2c87a8"/><polygon points="255.68 130.87 276.47 113.93 255.68 113.93 255.68 130.87" fill="#d8eced"/><polygon points="255.68 146.85 294.23 113.93 304.37 113.93 255.68 156.49 255.68 146.85" fill="#d8eced"/><polygon points="264.29 167.23 315.31 123.26 315.31 133.91 285.99 167.23 264.29 167.23" fill="#d8eced"/><path d="M221.33,92.86s16.53-6.42,14.63-22.5a12,12,0,0,1-4.14,3.56s.49-13.56-5.07-23.14c0,0,.57,10.55-1.71,11.8,0,0-3.82-16.54-9.39-22.65,0,0,2.12,10.09-1.65,11.08,0,0-5.65-14.58-15.49-17.08,0,0,4.62,20.72,5.9,26.11,0,0-3.29.45-5.77-7.07,0,0-7,6.43,3.19,24.07a12,12,0,0,1-6.68-.63s-.48,4,8.11,11.17c0,0-3.42,1.88-6.29,1.64C197,89.22,211.55,99.88,221.33,92.86Z" fill="#e21013"/><path d="M220.32,79.9s4.47-4.91,3.33-10.36,8.53,11.35-2.32,23.32c0,0-10.51,1.94-13-16,0,0,1.2-26.37-1.64-28.14,0,0,2.45.78,2.84,1.77s5.52,11.53,5.66,17.81C215.21,68.31,216.65,81,220.32,79.9Z" fill="#f4b73e"/><path d="M351.49,81s21.65,3.43,29.63-14.92a15,15,0,0,1-6.63,1.23s9-14.18,9-27.87c0,0-6,11.62-9.17,11.54,0,0,6.21-20,4.08-30,0,0-4,12.09-8.67,10.79,0,0,3.06-19.08-5.91-27.88,0,0-8,25-9.95,31.56,0,0-3.79-1.57-1.76-11.14,0,0-11.45,2.52-11.58,27.68,0,0-4.42-1.46-6.74-4.83,0,0-3,4,1.7,17,0,0-4.82-.11-7.74-2.16C327.74,61.91,336.67,82.38,351.49,81Z" fill="#e21013"/><path d="M358.49,66.5s7.82-2.46,10-9,2,17.43-17,23.45c0,0-12.43-4.47-3.9-25.16,0,0,17.71-27.41,15.77-31.07,0,0,2.13,2.36,1.94,3.66S364,44.15,360.25,50.94C360.25,50.94,353.91,65.34,358.49,66.5Z" fill="#f4b73e"/><rect x="519.47" y="140.3" width="28.5" height="9.05" transform="translate(258.73 -334.98) rotate(45)" fill="#1c2c4d"/><rect x="463.83" y="172.64" width="61.64" height="13.7" rx="6.85" ry="6.85" fill="#1c2c4d"/><rect x="451.5" y="190.45" width="85.61" height="20.55" rx="10.27" ry="10.27" fill="#1c2c4d"/><rect x="462.02" y="134.92" width="49.86" height="20.34" rx="10.17" ry="10.17" transform="translate(245.22 -301.83) rotate(45)" fill="#1c2c4d"/><rect x="508.6" y="89.71" width="49.86" height="20.34" rx="10.17" ry="10.17" transform="translate(226.89 -348.01) rotate(45)" fill="#1c2c4d"/><path d="M486.43,122.65l23.29,24.65s6.16-17.81,24.66-24.65l-24-24S506.29,117.17,486.43,122.65Z" fill="#1c2c4d"/><path d="M541.91,159l6.16-6.17s.69-.68,3.43,0,39,32.19,44.52,42.47c0,0,2.74,0,3.42,2.05s-4.79,13-13.7,13a4.78,4.78,0,0,1-1.37-2.74c0-1.37-42.46-35.62-42.46-43.84C541.91,163.74,541.22,160.32,541.91,159Z" fill="#1c2c4d"/><path d="M26.78,82.05s-3.47-6,0-8.43c0,0,39.68-1,42.16,0s5,8.43-3,8.43L64,92s19.84-4,24.31,2c0,0,15.87,9.92,5.95,26.79,0,0-5.95,14.38-7.44,14.88,0,0,7.93,18.84-1.49,33.23,0,0-5.46,11.9-14.38,15.37,0,0-11.91,13.4-6,18.36,0,0,5.46,0,4.47,5s-2.48,4-8.93,4l-30.25.5s-4.47-3-3.48-5.95,6.45-3,6.45-3,0-16.86-7.44-17.85-14.88-16.37-14.88-16.37l10.91-5,15.88,6.94,2.48,12.9,1-13.39-18.35-12.9L8.43,160.91S4,148,8.43,135.12L0,117.27H4.46l4.47-3.48,4,8.93,6-7.93,11.9,5.45-2.48,13.39L40.18,148l-7.94-13.89,6.94-15.87-13.39-9.92,8.93-5.46-8.93-2.48,1-5.45-3-5.46L32.24,92,30.75,83S27.28,83,26.78,82.05Z" fill="#1c2c4d"/><path d="M62.49,102.39s19.35-8.93,23.81,3.47c0,0,4,12.4-3.47,17.36C82.83,123.22,77.37,108.83,62.49,102.39Z" fill="#fff"/></g></g></svg>
