<svg xmlns="http://www.w3.org/2000/svg" viewBox="0 0 955.62 197.88"><title>elementer</title><g id="Layer_2" data-name="Layer 2"><g id="Layer_1-2" data-name="Layer 1"><g id="Page-1"><g id="Atoms"><g id="Group-6-Copy"><g id="Group-5"><path id="Combined-Shape" d="M572.36,168.15H603.7v6.06h0a21.72,21.72,0,0,1-21.78,21.67H339.78A21.72,21.72,0,0,1,318,174.21v-6.06h30.14V28.58h0a8.7,8.7,0,0,1,8.69-8.7H563.65a8.71,8.71,0,0,1,8.71,8.71ZM359,39.17v129H562.71v-129Z" fill="#052951"/></g><path id="Rectangle-6" d="M416,57.51h0a4.36,4.36,0,0,1,0,6.16L379,100.61a4.36,4.36,0,0,1-6.16,0h0a4.36,4.36,0,0,1,0-6.16l36.94-36.94A4.36,4.36,0,0,1,416,57.51Z" fill="#052951"/><path id="Rectangle-6-Copy" d="M392.15,53.05h0a4.35,4.35,0,0,1,0,6.15l-15.4,15.4a4.35,4.35,0,0,1-6.15,0h0a4.36,4.36,0,0,1,0-6.16L386,53.05A4.36,4.36,0,0,1,392.15,53.05Z" fill="#052951"/></g></g></g><g id="Mobile"><g id="iPhone-8-Copy-4"><g id="bike_icon" data-name="bike icon"><path id="Shape" d="M812.85,152.77H792.94a6.32,6.32,0,0,0-6.28,7.55,6.24,6.24,0,0,0,6.23,5.19h20a6.37,6.37,0,1,0,0-12.74Z" fill="#052951"/><path id="Shape-2" data-name="Shape" d="M895.35,78.6A54.2,54.2,0,0,0,870.93,84a196.61,196.61,0,0,1-3.81-20.64,16.52,16.52,0,0,0,10.68,3.82c8.39,0,8.39-30.58,0-30.58-5.34,0-9.92,3.06-13,6.88V40.37l-.77-3.82C861.77,18.2,851.06-4,811.31.61,808.25.61,806,3.67,806,6.73s3.06,5.35,6.12,5.35c32.88-3.06,38.23,13,39.76,26l.76,3.82a6.84,6.84,0,0,0,.77,3.82H761.61l-3.83-7.64h3a8.56,8.56,0,0,0,8.4-6.3,8.33,8.33,0,0,0-8-10.27H737.37A8.57,8.57,0,0,0,729,27.8a8.33,8.33,0,0,0,8,10.28h8v.76l6.1,13-16,31.35a58.27,58.27,0,0,0-22.89-4.59c-35.17,0-62.81,29.38-60.09,64.39,2.26,29.07,25.77,52.22,54.83,54.67a60.7,60.7,0,0,0,64.77-48.72h22.89c1.53,1.53,3.82,1.53,6.11,1.53A11.74,11.74,0,0,0,812.18,139a9.74,9.74,0,0,0-.76-4.58l44.25-67.29c2.29,7.65,3.05,15.29,5.34,22.94-15.26,10.7-25.94,28.29-25.94,48.17,0,32.88,27.47,59.64,60.28,59.64a59.64,59.64,0,1,0,0-119.28ZM758.22,64.92l33.6,68a10.92,10.92,0,0,0-1.52,4.59H773.49c0-20.63-10.69-38.19-27.49-48.89Zm-4.59,72.56H720.79l16-31.32C746.76,113.8,753.63,125.25,753.63,137.48Zm-41.24,40.74c-22.91,0-41.24-18.33-41.24-40.48s18.33-40.48,41.24-40.48a44.37,44.37,0,0,1,14.51,2.29l-20.62,39.72a6.54,6.54,0,0,0,0,5.34,6.28,6.28,0,0,0,4.58,3.06h41.25C747.52,166,731.48,178.22,712.39,178.22Zm90.14-49.67h0L766.72,58.47H849Zm92.4,49.87c-22.91,0-41.24-18.33-41.24-40.48a40.39,40.39,0,0,1,12.22-29c5.35,14.51,13,27.5,25.2,38.19a5.53,5.53,0,0,0,7.64,0,6,6,0,0,0,0-8.4c-10.69-9.93-18.33-22.91-22.91-36.66a41.34,41.34,0,0,1,19.09-4.58c22.92,0,41.25,18.33,41.25,40.48S917.85,178.42,894.93,178.42Z" fill="#052951"/></g></g></g><g id="Mobile-2" data-name="Mobile"><g id="iPhone-8-Copy-4-2" data-name="iPhone-8-Copy-4"><g id="Group-4"><g id="Group"><path id="Combined-Shape-2" data-name="Combined-Shape" d="M7.72,83.88H54.05a7.72,7.72,0,0,1,7.72,7.72v97.56a7.72,7.72,0,0,1-7.72,7.72H7.72A7.71,7.71,0,0,1,0,189.18V91.58H0a7.71,7.71,0,0,1,7.72-7.7ZM6,99v75.33H56.5V99ZM31.4,94.31a2.9,2.9,0,1,0-2.9-2.89A2.89,2.89,0,0,0,31.4,94.31Zm-6,89.76a1.88,1.88,0,0,0-1.87,2.05,2,2,0,0,0,2,1.72h11a2,2,0,0,0,2-1.72,1.88,1.88,0,0,0-1.88-2.05Z" fill="#052951"/></g></g></g></g><g id="Mobile-3" data-name="Mobile"><g id="iPhone-8-Copy-4-3" data-name="iPhone-8-Copy-4"><g id="Group-2" data-name="Group"><path id="Combined-Shape-3" data-name="Combined-Shape" d="M144.78,67.88h90.68a8.78,8.78,0,0,1,8.78,8.78V188.1a8.78,8.78,0,0,1-8.78,8.78H144.78a8.79,8.79,0,0,1-8.78-8.79V76.67h0a8.78,8.78,0,0,1,8.78-8.79Zm-2.11,13.34v95.64h94.9V81.22Zm41.41,103.06a2.22,2.22,0,0,0-2.11,2.93,2.25,2.25,0,0,0,2.18,1.51H199.8a2.25,2.25,0,0,0,2.18-1.51,2.22,2.22,0,0,0-2.11-2.93Zm7.24-107a2.75,2.75,0,1,0-2.75-2.74A2.74,2.74,0,0,0,191.32,77.32Z" fill="#052951"/></g></g></g></g></g></svg>
