<svg width="920" height="253" viewBox="0 0 920 253" xmlns="http://www.w3.org/2000/svg"><title>Yndlings_Logo</title><g fill="none"><path d="M563 17.2c-.2-10.4-14.1-15.1-25 .6 0 0 5.4-13.4-10.3-16.8-19.2-4.2-13.2 23.8-8.8 56.4 0 0 44.4-20.8 44.1-40.2z" fill="#E41B49"/><path d="M78 120.4l-7.4 61.4 21.6 2.7s0 2.1-.2 4.6c-.3 1.7-.7 4.3-.7 4.3s-28.3-.2-37.2-.2c-9.1 0-35.5.2-35.5.2s-.3-2.6 0-4.3c.2-2.4 1-4.6 1-4.6l20.6-2.4 7.2-59.3-33.6-77.5L.1 42.4s0-1.4.2-3.6c.3-1.9 1-5 1-5s21.1.2 30 .2c8.9 0 32.6-.2 32.6-.2s0 2.9-.2 5c-.3 2.1-.7 3.6-.7 3.6L46.7 45l27.8 63.3 39.8-60.9-20.2-5.3s0-1.4.3-3.4c.2-3.1 1-5.3 1-5.3s16.5.5 25.7.5c8.6 0 23.5-.2 23.5-.2s0 2.6-.2 5c-.2 1.9-.5 3.1-.5 3.1l-17.3 6L78 120.4zm152.9-49.1c10.1 0 18.5 8.1 18.5 19 0 2.9-2.9 20.4-16.3 87.8-.5 2.9.7 3.8 2.9 3.8 5.5 0 13.4-10.1 16.8-15.1 2.4.5 5.5 2.4 6.7 4.6-10.8 14.6-23.3 24-36.2 24-18.7 0-20.2-10.1-19.2-16.5 3.1-16.6 12.2-62.4 15.1-78.9 2.2-10.8 2.9-14.6-.7-14.9-11.7 0-42.9 45.1-46.5 68.4l-6.3 38.6c-6.2 1.4-13.7 1.4-19.2 1.4h-10.3l12-63.6c2.9-15.4 3.8-20.6 5.3-30.7 1-7.7 2.2-14.4-1.9-14.4-3.6 0-9.6 2.1-16.3 6.5-2.2-2.6-2.9-3.8-3.6-6.7 6.5-4.8 25.7-13.4 41-13.4 5.3 0 12 2.4 12 9.6 0 2.9-4.8 20.4-10.6 46.8 14.5-32.8 35.4-56.3 56.8-56.3zm116.6 80.6c-10.3 21.6-26.1 43.4-46.5 43.4-27.4 0-29.3-26.9-29.3-42.2 0-34.6 25.7-82.1 62.6-82.1 8.4 0 17.8 4.1 24.9 10.3.5-3.6 7-36.5 7.9-41l2.4-13.2-20.6-1c-1-2.4-1-6-.7-7.2l54.2-9.6c-16.1 82.1-20.6 106.1-32.6 168.4-.5 3.1 1 4.1 3.1 4.1 6.2 0 14.6-10.1 18-15.4 2.6.7 5.5 2.7 7 4.6-11 14.9-23.5 24.2-36.5 24.2-18.7 0-19.2-10.3-18.2-16.5.8-5.2 3.4-21.5 4.3-26.8zm1.7-22.1l8.2-39.1c-7.7-7.9-15.8-9.8-21.6-9.8-24.2 0-32.4 55.7-32.4 85.4 0 10.6 1.2 19 5.5 19 9.9-.1 32.4-32 40.3-55.5zm90.6 48c-.7 3.1.7 4.1 2.6 4.1 5.8 0 13.7-10.1 16.8-15.4 2.6.7 5.5 2.7 7 4.6-11 14.9-23.5 24.2-36.5 24.2-18.7 0-20.1-10.3-19-16.5l25.9-138.4 2.2-13.2-20.6-1c-1-2.4-1-6-.7-7.2l54.2-9.6-31.9 168.4zm93.6-96.2c-.3 3.8-4.8 30.7-18 96.2-.5 3.1.7 3.8 2.9 3.8 5.5 0 13.4-9.8 16.8-15.1 2.4.5 5.5 2.7 7 4.6-11 14.6-23.5 24.2-36.5 24.2-18.7 0-20.2-10.3-19.2-16.5 3.1-16.8 12.5-62.6 15.6-79.7 1.4-7.7 2.4-14.1-1.7-14.1-3.6 0-9.6 2.1-16.3 6.2-2.2-2.6-2.9-3.8-3.6-6.5 6.5-4.8 25.9-13.7 40.8-13.7 6.4 0 12.4 3.6 12.2 10.6zm123.3-10.3c10.1 0 18.5 8.1 18.5 19 0 2.9-2.9 20.4-16.3 87.8-.5 2.9.7 3.8 2.9 3.8 5.5 0 13.4-10.1 16.8-15.1 2.4.5 5.5 2.4 6.7 4.6-10.8 14.6-23.3 24-36.2 24-18.7 0-20.2-10.1-19.2-16.5 3.1-16.6 12.2-62.4 15.1-78.9 2.2-10.8 2.9-14.6-.7-14.9-11.7 0-42.9 45.1-46.5 68.4l-6.3 38.6c-6.2 1.4-13.7 1.4-19.2 1.4H562l12-63.6c2.9-15.4 3.8-20.6 5.3-30.7 1-7.7 2.2-14.4-1.9-14.4-3.6 0-9.6 2.1-16.3 6.5-2.2-2.6-2.9-3.8-3.6-6.7 6.5-4.8 25.7-13.4 41-13.4 5.3 0 12 2.4 12 9.6 0 2.9-4.8 20.4-10.6 46.8 14.6-32.8 35.5-56.3 56.8-56.3zm136.8 1.6c7.4-1.9 15.8-2.9 24.9-2.9-9.8 50.6-11.3 58.8-22.1 116.1-6.2 37.4-31.2 66.2-68.8 66.2-22.3 0-42.2-8.9-42.2-24.5 0-11 10.3-24.2 27.8-25.7.5 10.6-3.4 26.6-9.4 37 7.9 2.9 17.5 4.8 24 4.8 20.6 0 32.1-12.5 37.4-39.8l10.1-52.3c-9.1 21.4-27.8 43.4-45.6 43.4-27.4 0-30.2-26.1-30.2-41.5 0-34.6 22.8-82.8 62.6-82.8 8.6 0 17.8 4.3 26.2 11.3l5.3-9.3zm-16.6 56.9l8.4-38.6c-7.7-8.1-16.1-10.1-21.8-10.1-25.9 0-32.4 55.2-32.4 85.2 0 11 1.4 19 5.7 19 10.6-.1 32.7-32.9 40.1-55.5zm108.5 40.8c0-27.1-45.3-35.3-45.3-62.8 0-26.6 25.4-36.7 46.6-36.7 16.3 0 33.3 10.8 33.3 21.4 0 11.5-8.6 19-22.3 19-.5-10.6.5-17.8 6.5-28.1-4.6-2.6-11.5-4.3-18-4.3-11.5 0-20.6 3.8-20.6 14.6 0 25.9 46.5 33.3 46.5 64.1 0 23.8-24.7 38.4-50.9 38.4-15.6 0-34.6-10.1-34.6-21.4 0-11.5 8.9-18.7 22.6-19 .5 10.8-1.7 17.8-7.4 28.1 4.3 2.6 13.2 4.6 19.4 4.6 18.2-.2 24.2-8.8 24.2-17.9z" fill="#082846"/></g></svg>
