<svg xmlns="http://www.w3.org/2000/svg" viewBox="0 0 260 41.22"><title>yannonce</title><g id="Layer_2" data-name="Layer 2"><g id="Layer_1-2" data-name="Layer 1"><path d="M92.18,7.1c0-1.69-2.3-2.48-4.09.1A2,2,0,0,0,86.4,4.45c-3.14-.68-2.16,3.89-1.43,9.23,0,0,7.26-3.41,7.21-6.58" transform="translate(0 -4.39)" fill="#e51c4a"/><path d="M12.77,24,11.55,34.06l3.53.43s0,.36,0,.75-.12.71-.12.71l-6.09,0C7.35,35.91,3,36,3,36a3.1,3.1,0,0,1,0-.71,3.55,3.55,0,0,1,.15-.75l3.38-.39,1.18-9.7L2.24,11.71,0,11.24a5.75,5.75,0,0,1,0-.59c0-.32.15-.83.15-.83s3.46,0,4.92,0,5.34,0,5.34,0,0,.47,0,.83a3.21,3.21,0,0,1-.12.59l-2.67.43L12.18,22l6.52-10-3.3-.86a4.78,4.78,0,0,1,0-.55,4,4,0,0,1,.16-.87s2.71.08,4.2.08,3.85,0,3.85,0,0,.43,0,.83-.08.51-.08.51l-2.83,1Z" transform="translate(0 -4.39)" fill="#082945"/><path d="M37.8,16a3.05,3.05,0,0,1,3,3.1c0,.47-.48,3.34-2.68,14.38-.07.47.12.63.48.63.9,0,2.2-1.65,2.75-2.47a1.75,1.75,0,0,1,1.09.74c-1.76,2.4-3.8,3.93-5.93,3.93-3.06,0-3.3-1.65-3.14-2.71.51-2.71,2-10.21,2.48-12.93.35-1.76.47-2.39-.12-2.43-1.92,0-7,7.39-7.62,11.2l-1,6.32A14.35,14.35,0,0,1,24,36H22.28l2-10.42c.47-2.51.63-3.37.86-5,.16-1.26.36-2.36-.31-2.36a5.71,5.71,0,0,0-2.67,1.06,2.21,2.21,0,0,1-.59-1.1,14,14,0,0,1,6.72-2.2c.86,0,2,.39,2,1.57,0,.47-.79,3.34-1.73,7.66C30.89,19.8,34.31,16,37.8,16" transform="translate(0 -4.39)" fill="#082945"/><path d="M57.18,25.53l1.34-6.4A4.92,4.92,0,0,0,55,17.52c-4,0-5.3,9.12-5.3,14,0,1.73.19,3.1.9,3.1,1.61,0,5.3-5.22,6.6-9.08m-.28,3.62c-1.68,3.54-4.28,7.11-7.61,7.11-4.48,0-4.8-4.4-4.8-6.91,0-5.66,4.21-13.44,10.26-13.44a6.59,6.59,0,0,1,4.08,1.69c.08-.59,1.14-6,1.3-6.72l.39-2.16-3.38-.15A2.62,2.62,0,0,1,57,7.39L65.9,5.81c-2.63,13.44-3.38,17.37-5.34,27.58-.08.51.16.67.51.67,1,0,2.4-1.65,2.95-2.51a2.25,2.25,0,0,1,1.13.74c-1.8,2.44-3.84,4-6,4-3.07,0-3.15-1.69-3-2.71.12-.86.55-3.53.7-4.4" transform="translate(0 -4.39)" fill="#082945"/><path d="M72,33.39c-.12.51.12.67.43.67.95,0,2.24-1.65,2.76-2.52a2.33,2.33,0,0,1,1.13.75c-1.8,2.44-3.84,4-6,4-3.06,0-3.3-1.69-3.1-2.71l4.24-22.67.36-2.16-3.38-.15a2.62,2.62,0,0,1-.12-1.18l8.88-1.58Z" transform="translate(0 -4.39)" fill="#082945"/><path d="M87.33,17.64c0,.63-.79,5-2.94,15.75-.08.51.11.63.47.63.9,0,2.2-1.61,2.75-2.47a2.29,2.29,0,0,1,1.14.74c-1.81,2.4-3.86,4-6,4-3.06,0-3.3-1.69-3.14-2.71.51-2.75,2-10.25,2.55-13,.24-1.26.4-2.32-.27-2.32a6,6,0,0,0-2.67,1,2.37,2.37,0,0,1-.59-1.06,14.09,14.09,0,0,1,6.68-2.24c1.06,0,2,.59,2,1.73" transform="translate(0 -4.39)" fill="#082945"/><path d="M107.53,16a3,3,0,0,1,3,3.1c0,.47-.47,3.34-2.67,14.38-.08.47.12.63.47.63.91,0,2.2-1.65,2.75-2.47a1.77,1.77,0,0,1,1.1.74c-1.76,2.4-3.81,3.93-5.93,3.93-3.06,0-3.3-1.65-3.14-2.71.51-2.71,2-10.21,2.47-12.93.36-1.76.48-2.39-.12-2.43-1.92,0-7,7.39-7.61,11.2l-1,6.32A14.39,14.39,0,0,1,93.7,36H92l2-10.42c.47-2.51.62-3.37.86-5,.16-1.26.35-2.36-.31-2.36a5.78,5.78,0,0,0-2.68,1.06,2.27,2.27,0,0,1-.58-1.1A13.92,13.92,0,0,1,98,15.91c.87,0,2,.39,2,1.57,0,.47-.79,3.34-1.73,7.66C100.61,19.8,104,16,107.53,16" transform="translate(0 -4.39)" fill="#082945"/><path d="M127.21,25.53l1.37-6.32A4.88,4.88,0,0,0,125,17.56c-4.25,0-5.3,9-5.3,14,0,1.8.23,3.1.94,3.1,1.73,0,5.34-5.38,6.56-9.08m2.71-9.3a16.14,16.14,0,0,1,4.08-.48c-1.6,8.29-1.84,9.63-3.61,19-1,6.13-5.11,10.84-11.27,10.84-3.66,0-6.92-1.45-6.92-4a4.67,4.67,0,0,1,4.56-4.2,12.7,12.7,0,0,1-1.53,6.05,12.83,12.83,0,0,0,3.93.78c3.37,0,5.26-2,6.12-6.51l1.65-8.57c-1.49,3.5-4.55,7.11-7.46,7.11-4.48,0-5-4.28-5-6.79,0-5.66,3.73-13.56,10.25-13.56a7,7,0,0,1,4.29,1.85Z" transform="translate(0 -4.39)" fill="#082945"/><path d="M145,32.21c0-4.43-7.43-5.77-7.43-10.29,0-4.36,4.17-6,7.62-6,2.67,0,5.47,1.77,5.47,3.5s-1.42,3.1-3.66,3.1A7.27,7.27,0,0,1,148,17.92a6.18,6.18,0,0,0-2.95-.71c-1.88,0-3.37.63-3.37,2.39,0,4.25,7.62,5.46,7.62,10.49,0,3.89-4.05,6.29-8.33,6.29-2.56,0-5.66-1.65-5.66-3.5s1.46-3.06,3.7-3.1a7.77,7.77,0,0,1-1.22,4.6,7.31,7.31,0,0,0,3.18.74c3,0,4-1.41,4-2.91" transform="translate(0 -4.39)" fill="#082945"/><path d="M161.37,34.8l.2-1.47a5.84,5.84,0,0,0,1.85-.51c.44-.24.66-.49.66-.77s0-.45,0-.63,0-.37-.06-.6l-.58-5.6h-5.63c-.18.5-.42,1.15-.7,2s-.52,1.5-.71,2.08a15,15,0,0,0-.51,1.86c-.05.34-.08.55-.08.64a1.18,1.18,0,0,0,.54,1,4,4,0,0,0,1.66.57l-.19,1.47h-6.88l.2-1.47a4.91,4.91,0,0,0,.84-.2,2.27,2.27,0,0,0,.85-.48,5,5,0,0,0,.91-1.15,9.35,9.35,0,0,0,.8-1.7q2.34-6.27,4.3-11.57t4.54-12.32h2.28c.6,6,1.09,11,1.47,14.88s.73,7.19,1,9.83a4.87,4.87,0,0,0,.23,1.09,2.9,2.9,0,0,0,.54.94,1.72,1.72,0,0,0,.67.48,2.83,2.83,0,0,0,.74.2l-.19,1.47Zm1.84-11.47-1-10.38-3.73,10.38Z" transform="translate(0 -4.39)" fill="#00b9ea"/><path d="M186.79,31.72l-.26,1.81c-.76.52-1.37.92-1.82,1.2a3,3,0,0,1-1.58.41,2.4,2.4,0,0,1-2.14-1.2,5.36,5.36,0,0,1-.76-3q0-.48,0-1.23a18.3,18.3,0,0,1,.19-1.88l.83-5.34c.09-.57.15-1.09.2-1.55s.06-.84.06-1.14a3.41,3.41,0,0,0-.27-1.5.9.9,0,0,0-.89-.55,2.16,2.16,0,0,0-1.12.54,7.22,7.22,0,0,0-1.62,2l-1.91,14.5h-3.81l1.63-12.35c0-.37.11-.86.18-1.46a11.72,11.72,0,0,0,.11-1.51,3.25,3.25,0,0,0-.27-1.58,1.08,1.08,0,0,0-1-.43,1.69,1.69,0,0,0-.76.2,6.08,6.08,0,0,0-.66.39l.25-1.81a20.17,20.17,0,0,1,1.79-1.14,3.38,3.38,0,0,1,1.61-.47,2.34,2.34,0,0,1,2,.94,5.61,5.61,0,0,1,.89,2.62h.08a11.19,11.19,0,0,1,2.34-2.78,3.91,3.91,0,0,1,2.56-1,2.22,2.22,0,0,1,2,1.23,5.73,5.73,0,0,1,.72,3c0,.3,0,.74,0,1.29a17.17,17.17,0,0,1-.19,1.78l-.88,5.64c-.07.47-.14,1-.21,1.6S184,30,184,30.3a3,3,0,0,0,.3,1.59,1.16,1.16,0,0,0,1,.42,1.83,1.83,0,0,0,.78-.21A3,3,0,0,0,186.79,31.72Z" transform="translate(0 -4.39)" fill="#00b9ea"/><path d="M203.08,31.72l-.26,1.81c-.76.52-1.37.92-1.82,1.2a3,3,0,0,1-1.58.41,2.4,2.4,0,0,1-2.14-1.2,5.36,5.36,0,0,1-.76-3q0-.48,0-1.23a18.3,18.3,0,0,1,.19-1.88l.83-5.34c.09-.57.15-1.09.2-1.55s.06-.84.06-1.14a3.41,3.41,0,0,0-.27-1.5.9.9,0,0,0-.89-.55,2.2,2.2,0,0,0-1.12.54,7.22,7.22,0,0,0-1.62,2L192,34.8h-3.81l1.63-12.35c0-.37.11-.86.18-1.46a11.72,11.72,0,0,0,.11-1.51,3.25,3.25,0,0,0-.27-1.58,1.08,1.08,0,0,0-1-.43,1.69,1.69,0,0,0-.76.2,6.08,6.08,0,0,0-.66.39l.25-1.81a20.17,20.17,0,0,1,1.79-1.14,3.38,3.38,0,0,1,1.61-.47,2.34,2.34,0,0,1,2,.94A5.61,5.61,0,0,1,194,18.2h.08a11.19,11.19,0,0,1,2.34-2.78,3.91,3.91,0,0,1,2.56-1,2.22,2.22,0,0,1,2,1.23,5.73,5.73,0,0,1,.72,3c0,.3,0,.74,0,1.29a17.17,17.17,0,0,1-.19,1.78l-.88,5.64c-.07.47-.14,1-.21,1.6s-.09,1.06-.09,1.37a3,3,0,0,0,.3,1.59,1.16,1.16,0,0,0,1,.42,1.83,1.83,0,0,0,.78-.21A3,3,0,0,0,203.08,31.72Z" transform="translate(0 -4.39)" fill="#00b9ea"/><path d="M217.65,22.77a21.18,21.18,0,0,1-.55,4.84,14.46,14.46,0,0,1-1.57,4A8.72,8.72,0,0,1,213,34.44a5.71,5.71,0,0,1-3.3,1,4.58,4.58,0,0,1-4-2.28A11.18,11.18,0,0,1,204.18,27a20.46,20.46,0,0,1,.57-5,14.47,14.47,0,0,1,1.6-4,8.11,8.11,0,0,1,2.49-2.64,5.68,5.68,0,0,1,3.19-1,4.71,4.71,0,0,1,4.11,2.22A10.85,10.85,0,0,1,217.65,22.77Zm-4.06-2.27a9.8,9.8,0,0,0-.45-3.45c-.31-.73-.75-1.1-1.32-1.1s-1.14.41-1.63,1.23a11.59,11.59,0,0,0-1.2,3.63,35.24,35.24,0,0,0-.58,4.3c-.11,1.55-.17,2.93-.17,4.15a9.94,9.94,0,0,0,.46,3.52c.31.73.76,1.09,1.34,1.09s1.18-.45,1.64-1.34a13.11,13.11,0,0,0,1.09-3.31,37.12,37.12,0,0,0,.61-4.27C213.52,23.39,213.59,21.91,213.59,20.5Z" transform="translate(0 -4.39)" fill="#00b9ea"/><path d="M234.38,31.72l-.26,1.81c-.76.52-1.37.92-1.82,1.2a3,3,0,0,1-1.58.41,2.4,2.4,0,0,1-2.14-1.2,5.36,5.36,0,0,1-.76-3q0-.48,0-1.23a15.85,15.85,0,0,1,.19-1.88l.83-5.34c.09-.57.15-1.09.19-1.55a10.88,10.88,0,0,0,.07-1.14,3.41,3.41,0,0,0-.27-1.5.91.91,0,0,0-.9-.55,2.18,2.18,0,0,0-1.11.54,7,7,0,0,0-1.62,2l-1.92,14.5H219.5l1.64-12.35c.05-.37.11-.86.18-1.46a11.72,11.72,0,0,0,.11-1.51,3.25,3.25,0,0,0-.27-1.58,1.09,1.09,0,0,0-1-.43,1.69,1.69,0,0,0-.75.2,7.51,7.51,0,0,0-.67.39l.26-1.81a20.17,20.17,0,0,1,1.79-1.14,3.35,3.35,0,0,1,1.61-.47,2.34,2.34,0,0,1,2,.94,5.72,5.72,0,0,1,.89,2.62h.08a11.39,11.39,0,0,1,2.33-2.78,4,4,0,0,1,2.57-1,2.22,2.22,0,0,1,2,1.23,5.73,5.73,0,0,1,.72,3c0,.3,0,.74,0,1.29a17.17,17.17,0,0,1-.19,1.78l-.88,5.64c-.08.47-.15,1-.21,1.6s-.09,1.06-.09,1.37a3,3,0,0,0,.3,1.59,1.16,1.16,0,0,0,1,.42,1.83,1.83,0,0,0,.78-.21A3.57,3.57,0,0,0,234.38,31.72Z" transform="translate(0 -4.39)" fill="#00b9ea"/><path d="M241.13,35.46A4.65,4.65,0,0,1,237,33.15a11.64,11.64,0,0,1-1.48-6.34A22,22,0,0,1,236,22.2a14.91,14.91,0,0,1,1.45-4,8.28,8.28,0,0,1,2.34-2.75,5.25,5.25,0,0,1,3.2-1.07,3.79,3.79,0,0,1,3.11,1.31,5.45,5.45,0,0,1,1.08,3.59,10.45,10.45,0,0,1-.11,1.39,5.47,5.47,0,0,1-.35,1.28,3.07,3.07,0,0,1-.63,1,1.35,1.35,0,0,1-1,.34,1.57,1.57,0,0,1-1.4-.77,2.93,2.93,0,0,1-.5-1.61,8.34,8.34,0,0,1,.24-2c.16-.66.37-1.35.61-2.07a1.88,1.88,0,0,0-.42-.54,1.11,1.11,0,0,0-.82-.32c-.9,0-1.65.95-2.24,2.84a24,24,0,0,0-.88,7,13.38,13.38,0,0,0,.67,4.84q.68,1.65,1.92,1.65a2.85,2.85,0,0,0,2.11-.86,9.41,9.41,0,0,0,1.74-2.92l.83,1.23a11.18,11.18,0,0,1-2.5,4.09A4.67,4.67,0,0,1,241.13,35.46Z" transform="translate(0 -4.39)" fill="#00b9ea"/><path d="M253.65,35.46a4.49,4.49,0,0,1-2.42-.65A5.13,5.13,0,0,1,249.5,33a9.53,9.53,0,0,1-1-2.71,16.35,16.35,0,0,1-.34-3.41,20.59,20.59,0,0,1,.51-4.6,15,15,0,0,1,1.51-4,8.41,8.41,0,0,1,2.4-2.77,5.31,5.31,0,0,1,3.2-1.07,4.1,4.1,0,0,1,3.15,1.15A4.86,4.86,0,0,1,260,19a7.26,7.26,0,0,1-.93,3.76,5.79,5.79,0,0,1-2.54,2.34,12.86,12.86,0,0,1-2.16.94,17.94,17.94,0,0,1-2.18.53c0,.59.06,1.25.14,2a10.4,10.4,0,0,0,.34,1.89,3.67,3.67,0,0,0,.79,1.44,1.7,1.7,0,0,0,1.29.53,3.23,3.23,0,0,0,2.31-.92,9,9,0,0,0,1.81-2.9l.85,1.23a11.56,11.56,0,0,1-2.66,4.1A4.91,4.91,0,0,1,253.65,35.46Zm2.61-15.9a7.44,7.44,0,0,0-.36-2.62c-.24-.61-.57-.91-1-.91q-.89,0-1.68,2.52a26.79,26.79,0,0,0-1,6.37,10.76,10.76,0,0,0,1.35-.36,3.61,3.61,0,0,0,1.06-.52,3.71,3.71,0,0,0,1.25-1.71A8.39,8.39,0,0,0,256.26,19.56Z" transform="translate(0 -4.39)" fill="#00b9ea"/></g></g></svg>
