<svg xmlns="http://www.w3.org/2000/svg" viewBox="0 0 227.6 41.22"><title>yt</title><g id="Layer_2" data-name="Layer 2"><g id="Layer_1-2" data-name="Layer 1"><path d="M92.18,2.72c0-1.7-2.3-2.48-4.09.09A2,2,0,0,0,86.4.07C83.26-.61,84.24,4,85,9.29c0,0,7.26-3.41,7.21-6.57" fill="#e51c4a"/><path d="M12.77,19.62,11.55,29.67l3.53.44s0,.35,0,.74-.12.71-.12.71l-6.09,0c-1.49,0-5.81,0-5.81,0a3.08,3.08,0,0,1,0-.71,3.38,3.38,0,0,1,.15-.74l3.38-.4L7.74,20,2.24,7.32,0,6.85a5.75,5.75,0,0,1,0-.59c0-.31.15-.82.15-.82l4.92,0,5.34,0s0,.47,0,.82a3.21,3.21,0,0,1-.12.59l-2.67.43,4.56,10.37,6.52-10-3.3-.87a4.91,4.91,0,0,1,0-.55,3.84,3.84,0,0,1,.16-.86s2.71.07,4.2.07,3.85,0,3.85,0,0,.43,0,.82-.08.51-.08.51l-2.83,1Z" fill="#082945"/><path d="M37.8,11.57a3,3,0,0,1,3,3.1c0,.47-.48,3.34-2.68,14.38-.07.47.12.62.48.62.9,0,2.2-1.64,2.75-2.47a1.76,1.76,0,0,1,1.09.75c-1.76,2.39-3.8,3.92-5.93,3.92-3.06,0-3.3-1.65-3.14-2.7.51-2.72,2-10.22,2.48-12.93.35-1.77.47-2.4-.12-2.44-1.92,0-7,7.39-7.62,11.2l-1,6.32a14.35,14.35,0,0,1-3.14.24H22.28l2-10.41c.47-2.52.63-3.38.86-5,.16-1.26.36-2.35-.31-2.35a5.71,5.71,0,0,0-2.67,1.06,2.24,2.24,0,0,1-.59-1.11,14,14,0,0,1,6.72-2.19c.86,0,2,.39,2,1.57,0,.47-.79,3.34-1.73,7.66,2.4-5.35,5.82-9.19,9.31-9.19" fill="#082945"/><path d="M57.18,21.15l1.34-6.4A4.88,4.88,0,0,0,55,13.14c-4,0-5.3,9.11-5.3,14,0,1.73.19,3.1.9,3.1,1.61,0,5.3-5.22,6.6-9.07m-.28,3.61c-1.68,3.54-4.28,7.11-7.61,7.11-4.48,0-4.8-4.39-4.8-6.91,0-5.66,4.21-13.43,10.26-13.43a6.53,6.53,0,0,1,4.08,1.69c.08-.6,1.14-6,1.3-6.72l.39-2.16-3.38-.16A2.6,2.6,0,0,1,57,3L65.9,1.43C63.27,14.86,62.52,18.79,60.56,29c-.08.51.16.66.51.66,1,0,2.4-1.64,2.95-2.51a2.26,2.26,0,0,1,1.13.75c-1.8,2.43-3.84,4-6,4-3.07,0-3.15-1.68-3-2.71.12-.86.55-3.53.7-4.4" fill="#082945"/><path d="M72,29c-.12.51.12.66.43.66.95,0,2.24-1.64,2.76-2.51a2.26,2.26,0,0,1,1.13.75c-1.8,2.43-3.84,4-6,4-3.06,0-3.3-1.68-3.1-2.7L71.49,6.5l.36-2.16-3.38-.16A2.6,2.6,0,0,1,68.35,3l8.88-1.57Z" fill="#082945"/><path d="M87.33,13.25c0,.63-.79,5-2.94,15.76-.08.51.11.63.47.63.9,0,2.2-1.61,2.75-2.48a2.25,2.25,0,0,1,1.14.75c-1.81,2.39-3.86,4-6,4-3.06,0-3.3-1.68-3.14-2.7.51-2.76,2-10.26,2.55-13,.24-1.26.4-2.32-.27-2.32a6.05,6.05,0,0,0-2.67,1,2.42,2.42,0,0,1-.59-1.06,14,14,0,0,1,6.68-2.24c1.06,0,2,.59,2,1.72" fill="#082945"/><path d="M107.53,11.57a3,3,0,0,1,3,3.1c0,.47-.47,3.34-2.67,14.38-.08.47.12.62.47.62.91,0,2.2-1.64,2.75-2.47a1.78,1.78,0,0,1,1.1.75c-1.76,2.39-3.81,3.92-5.93,3.92-3.06,0-3.3-1.65-3.14-2.7.51-2.72,2-10.22,2.47-12.93.36-1.77.48-2.4-.12-2.44-1.92,0-7,7.39-7.61,11.2l-1,6.32a14.39,14.39,0,0,1-3.14.24H92l2-10.41c.47-2.52.62-3.38.86-5,.16-1.26.35-2.35-.31-2.35a5.78,5.78,0,0,0-2.68,1.06,2.3,2.3,0,0,1-.58-1.11A13.93,13.93,0,0,1,98,11.53c.87,0,2,.39,2,1.57,0,.47-.79,3.34-1.73,7.66,2.39-5.35,5.81-9.19,9.31-9.19" fill="#082945"/><path d="M127.21,21.15l1.37-6.33A4.88,4.88,0,0,0,125,13.17c-4.25,0-5.3,9-5.3,14,0,1.81.23,3.1.94,3.1,1.73,0,5.34-5.38,6.56-9.07m2.71-9.31a16.63,16.63,0,0,1,4.08-.47c-1.6,8.29-1.84,9.62-3.61,19-1,6.13-5.11,10.84-11.27,10.84-3.66,0-6.92-1.45-6.92-4A4.67,4.67,0,0,1,116.76,33a12.67,12.67,0,0,1-1.53,6.05,12.58,12.58,0,0,0,3.93.79c3.37,0,5.26-2,6.12-6.52l1.65-8.57c-1.49,3.5-4.55,7.11-7.46,7.11-4.48,0-5-4.28-5-6.79,0-5.66,3.73-13.55,10.25-13.55a7,7,0,0,1,4.29,1.84Z" fill="#082945"/><path d="M145,27.83c0-4.44-7.43-5.78-7.43-10.29,0-4.36,4.17-6,7.62-6,2.67,0,5.47,1.76,5.47,3.49,0,1.89-1.42,3.11-3.66,3.11a7.32,7.32,0,0,1,1.06-4.6,6.3,6.3,0,0,0-2.95-.71c-1.88,0-3.37.63-3.37,2.4,0,4.24,7.62,5.46,7.62,10.49,0,3.89-4.05,6.28-8.33,6.28-2.56,0-5.66-1.65-5.66-3.49s1.46-3.07,3.7-3.11a7.76,7.76,0,0,1-1.22,4.6,7.31,7.31,0,0,0,3.18.75c3,0,4-1.42,4-2.91" fill="#082945"/><path d="M222.66,13.41a7,7,0,0,0-4.27-1.84c-6.51,0-10.24,7.88-10.24,13.52,0,2.51.48,6.78,4.94,6.78,2.9,0,6-3.6,7.45-7.09l-1.64,8.55c-.87,4.46-2.75,6.5-6.12,6.5a12.83,12.83,0,0,1-3.92-.78,12.66,12.66,0,0,0,1.53-6,4.66,4.66,0,0,0-4.55,4.2c0,2.54,3.26,4,6.9,4,6.16,0,10.23-4.7,11.25-10.81,1.77-9.37,2-10.71,3.61-19a16.63,16.63,0,0,0-4.08.47Zm-8.39,16.82c-.71,0-.94-1.3-.94-3.1,0-4.9,1.06-13.91,5.29-13.91a4.87,4.87,0,0,1,3.57,1.64l-1.37,6.31c-1.22,3.69-4.83,9.06-6.55,9.06M193,20.78c1-4.31,1.73-7.17,1.73-7.64,0-1.18-1.1-1.57-2-1.57a13.88,13.88,0,0,0-6.7,2.19,2.27,2.27,0,0,0,.58,1.1,5.82,5.82,0,0,1,2.67-1.06c.67,0,.47,1.1.31,2.36-.23,1.64-.39,2.5-.86,5l-2,10.39h1.69a14.91,14.91,0,0,0,3.13-.23l1-6.32c.59-3.8,5.69-11.17,7.61-11.17.58,0,.47.67.11,2.43-.47,2.71-2,10.2-2.47,12.9-.15,1.06.08,2.7,3.14,2.7,2.12,0,4.16-1.52,5.92-3.92a1.84,1.84,0,0,0-1.1-.74c-.55.82-1.84,2.47-2.74,2.47-.35,0-.55-.16-.47-.63,2.19-11,2.66-13.87,2.66-14.34a3,3,0,0,0-3-3.1c-3.48,0-6.89,3.84-9.29,9.17m-12.85-9.21a14.09,14.09,0,0,0-6.67,2.23,2.47,2.47,0,0,0,.59,1.06,6.14,6.14,0,0,1,2.67-1c.66,0,.51,1.06.27,2.32-.51,2.78-2,10.27-2.55,13-.15,1,.08,2.7,3.14,2.7,2.12,0,4.15-1.56,6-3.95a2.25,2.25,0,0,0-1.14-.75c-.55.86-1.84,2.47-2.74,2.47-.36,0-.55-.12-.47-.63,2.15-10.7,2.9-15.09,2.94-15.72,0-1.13-.94-1.72-2-1.72m-1.41-6.63a2.25,2.25,0,0,0,2.31,2.32A3.47,3.47,0,0,0,184.38,4,2.31,2.31,0,0,0,182,1.73a3.42,3.42,0,0,0-3.21,3.21m-15,.63c2.79,0,8.86-.08,10.31-.08l-.35,7.06a2.28,2.28,0,0,1-1.26.08s-.7-4.82-2.19-5.65C168,7,166.1,7,166.1,7l-2.79,22.66,3.84.43s0,.35,0,.75a5.77,5.77,0,0,1-.15.7l-6.35,0-6,0a3.75,3.75,0,0,1,0-.7,3,3,0,0,1,.16-.71l3.56-.43L161.08,7s-1.81,0-4.39,0c-1.41.94-3.3,5.57-3.3,5.57a2.21,2.21,0,0,1-1.25,0l1.33-7.06c6.31,0,8.9.08,10.31.08" fill="#00b9ea"/></g></g></svg>
